/* XPM */
static char * coin_xpm[] = {
"32 32 8 1",
" 	c #847F7F",
".	c #BCB19F",
"+	c #3E181B",
"@	c #F3B506",
"#	c #F7C844",
"$	c #C26012",
"%	c #996710",
"&	c #5A5A63",
"        ........        ........",
"        ........        ........",
"        ........        ........",
"        ........        ........",
"        ........        ........",
"        ........        ........",
"        ..++++++        ........",
"        ..++++++        ........",
"........++@@####++......        ",
"........++@@####++......        ",
"......++@@@@@@@@##++....        ",
"......++@@@@@@@@##++....        ",
"......++@@++@@@@@@++....        ",
"......++@@++@@@@@@++....        ",
"....$$++@@@@@@@@%%++++++++      ",
"....$$++@@@@@@@@%%++++++++      ",
"        ++%%@@@@@@######++......",
"        ++%%@@@@@@######++ .....",
"        ..++%%%%%%%%%%%%++  ....",
"        ..++%%%%%%%%%%%%++  ....",
"        ..++%%%%%%%%%%++    ....",
"          ++%%%%%%%%%%++    ....",
"            ++++++++++&&    ....",
"        ..  ++++++++++&&    ....",
"........  &&&&&&        &&&&    ",
"........   &&&&&        &&&     ",
"........    &&&&        &&      ",
"........        ........        ",
"........        ........        ",
"........        ........        ",
"........        ........        ",
"........        ........        "};
