/* XPM */
static char * enemy_right_xpm[] = {
"32 32 11 1",
" 	c #847F7F",
".	c #BCB19F",
"+	c #871D0B",
"@	c #EF2703",
"#	c #FFFFFF",
"$	c #000000",
"%	c #84817F",
"&	c #5A5A63",
"*	c #BBB09E",
"=	c #837E7E",
"-	c #837F7F",
"        .....+.+        ........",
"        .....@@@@@      ........",
"        ....@@@@#@@     ........",
"        ....@@#@$@@     ........",
"        ....@@$@@@@     ........",
"        ....@@@@+@@     ........",
"        ....@@@@@@      ........",
"        .......@%       ........",
"........       @@@......        ",
"........      @@@.@.....        ",
"........     @ @..@.....        ",
"........    @  @..@.....        ",
"........    @  @........        ",
"........       @........        ",
"........       @........        ",
"........       @........        ",
"        .......@        ........",
"        .......@@       ........",
"        ......@. @      ........",
"        .....@.. @      ........",
"        .....@.. @      ........",
"        .....@.. @      ........",
"        .....@.. @      ........",
"        .....@.. &&     ........",
"........     @  *. .....        ",
"........     @& ..   ...        ",
"........   =  &&      ..        ",
"........   -  =&      ..        ",
"........        .    . .        ",
"........        ..  ....        ",
"........        .... ...        ",
"........        ........        "};
