/* XPM */
static char * enemy_default_xpm[] = {
"32 32 7 1",
" 	c #847F7F",
".	c #BCB19F",
"+	c #871D0B",
"@	c #EF2703",
"#	c #FFFFFF",
"$	c #000000",
"%	c #5A5A63",
"        ....+..+        ........",
"        ...@@@@@@       ........",
"        ..@@#@@#@@      ........",
"        ..@@$@@$@@@     ........",
"        ..@@@@@@@@@     ........",
"        ..@@@+@@@@@     ........",
"        ...@@@@@@@      ........",
"        ......@.        ........",
"........      @ ........        ",
"........    @@@@@@......        ",
"........   @  @ ..@.....        ",
"........  @   @ ...@....        ",
"........  @   @ ...@....        ",
"........  @    @...@....        ",
"........       @........        ",
"........       @........        ",
"        .......@        ........",
"        ......@@@       ........",
"        ....@@.. @@     ........",
"        ....@...  @     ........",
"        ...@....   @    ........",
"        ...@....   @    ........",
"        ...@....   @    ........",
"        ...@....   @    ........",
"........   @    ...@....        ",
"........    %   ... ....        ",
"........    %%  ... ....        ",
"........     %%%    ....        ",
"........      %%     ...        ",
"........      %%     ...        ",
"........       %    ....        ",
"........        . .. ...        "};
