/* XPM */
static char * enemy_left_xpm[] = {
"32 32 10 1",
" 	c #847F7F",
".	c #BCB19F",
"+	c #871D0B",
"@	c #EF2703",
"#	c #FFFFFF",
"$	c #000000",
"%	c #857F7F",
"&	c #BBB29E",
"*	c #84807F",
"=	c #5A5A63",
"        ........+ +     ........",
"        ......@@@@@     ........",
"        .....@@#@@@@    ........",
"        .....@@$@#@@    ........",
"        .....@@@@$@@    ........",
"        .....@@+@@@@%   ........",
"        ......@@@@@@    ........",
"        .......&@       ........",
"........      @@@.......        ",
"........     @  @@......        ",
"........     @  @.@.....        ",
"........     *  @..@....        ",
"........        @..@....        ",
"........        @.......        ",
"........        @.......        ",
"........        @.......        ",
"        ........@       ........",
"        .......@@       ........",
"        ......@. @      ........",
"        ......@.  @     ........",
"        ......@.  @     ........",
"        ......@.  @     ........",
"        ......@.  @     ........",
"        ......  ==@     ........",
"........      ==  @.....        ",
"........       =  @ ....        ",
"........       =     ...        ",
"........        .    ...        ",
"........        ... ....        ",
"........        ........        ",
"........        ........        ",
"........        ........        "};
