/* XPM */
static char * exit_closed_xpm[] = {
"32 32 219 2",
"  	c #847F7F",
". 	c #BCB19F",
"+ 	c #58341A",
"@ 	c #5B371F",
"# 	c #5D3921",
"$ 	c #5C381F",
"% 	c #5C371F",
"& 	c #532C15",
"* 	c #573119",
"= 	c #5B361D",
"- 	c #5F3B22",
"; 	c #603D23",
"> 	c #623F25",
", 	c #634026",
"' 	c #623E24",
") 	c #563019",
"! 	c #532C14",
"~ 	c #5A361E",
"{ 	c #5A371E",
"] 	c #5B371E",
"^ 	c #59341C",
"/ 	c #9E8F7C",
"( 	c #958671",
"_ 	c #948470",
": 	c #5E3B25",
"< 	c #816747",
"[ 	c #816646",
"} 	c #816647",
"| 	c #64432C",
"1 	c #93836D",
"2 	c #93826D",
"3 	c #9D8F7C",
"4 	c #5D3B22",
"5 	c #5A341C",
"6 	c #9E907C",
"7 	c #66462F",
"8 	c #674731",
"9 	c #8A7150",
"0 	c #8A7250",
"a 	c #8B7351",
"b 	c #8C7453",
"c 	c #8E7554",
"d 	c #907756",
"e 	c #8F7755",
"f 	c #8F7655",
"g 	c #8C7352",
"h 	c #876D4D",
"i 	c #836848",
"j 	c #64422B",
"k 	c #5C3920",
"l 	c #5E3A21",
"m 	c #684832",
"n 	c #826847",
"o 	c #6C4E31",
"p 	c #6F5135",
"q 	c #6F5235",
"r 	c #715437",
"s 	c #74583A",
"t 	c #74593A",
"u 	c #755A3B",
"v 	c #725638",
"w 	c #725437",
"x 	c #715337",
"y 	c #705336",
"z 	c #705236",
"A 	c #715436",
"B 	c #826848",
"C 	c #694B33",
"D 	c #5B351D",
"E 	c #907956",
"F 	c #836849",
"G 	c #836949",
"H 	c #583119",
"I 	c #5B361C",
"J 	c #5F3921",
"K 	c #5E3920",
"L 	c #5D391F",
"M 	c #5A351D",
"N 	c #826948",
"O 	c #917957",
"P 	c #59331A",
"Q 	c #5A5A63",
"R 	c #927C58",
"S 	c #836A49",
"T 	c #856A4B",
"U 	c #7B6042",
"V 	c #82684A",
"W 	c #816749",
"X 	c #806748",
"Y 	c #816748",
"Z 	c #816848",
"` 	c #806648",
" .	c #7E6445",
"..	c #856B4A",
"+.	c #927A58",
"@.	c #573118",
"#.	c #937C5A",
"$.	c #856B4B",
"%.	c #856C4B",
"&.	c #856B4C",
"*.	c #866B4C",
"=.	c #856C4D",
"-.	c #866C4D",
";.	c #866D4D",
">.	c #866D4E",
",.	c #5B341C",
"'.	c #886F4E",
").	c #937C59",
"!.	c #5A351B",
"~.	c #613E23",
"{.	c #947D5B",
"].	c #876E4D",
"^.	c #735639",
"/.	c #7C6042",
"(.	c #7C6143",
"_.	c #7D6143",
":.	c #7D6243",
"<.	c #7B6141",
"[.	c #5E381E",
"}.	c #89704E",
"|.	c #88704E",
"1.	c #957F5B",
"2.	c #5A361C",
"3.	c #634226",
"4.	c #957D5B",
"5.	c #735738",
"6.	c #7A6041",
"7.	c #7B6041",
"8.	c #7C6142",
"9.	c #8A724F",
"0.	c #97815D",
"a.	c #66452A",
"b.	c #88704F",
"c.	c #896F4F",
"d.	c #59321A",
"e.	c #73573A",
"f.	c #7C6242",
"g.	c #613D22",
"h.	c #8A7251",
"i.	c #98815E",
"j.	c #613F24",
"k.	c #98835E",
"l.	c #7B5E40",
"m.	c #846A4B",
"n.	c #866B4B",
"o.	c #866C4C",
"p.	c #876D4C",
"q.	c #876C4D",
"r.	c #866C4B",
"s.	c #623E23",
"t.	c #8C7452",
"u.	c #5C371D",
"v.	c #613E24",
"w.	c #97825E",
"x.	c #8B7352",
"y.	c #886E4D",
"z.	c #876C4C",
"A.	c #633F24",
"B.	c #98825E",
"C.	c #5C361C",
"D.	c #5F3B21",
"E.	c #96805C",
"F.	c #8C7351",
"G.	c #5A331A",
"H.	c #886F4F",
"I.	c #89704F",
"J.	c #8A704F",
"K.	c #8B7251",
"L.	c #613E22",
"M.	c #8D7553",
"N.	c #5B331B",
"O.	c #967F5C",
"P.	c #715134",
"Q.	c #7C6041",
"R.	c #7D6343",
"S.	c #7C6141",
"T.	c #7B5F40",
"U.	c #623E22",
"V.	c #573016",
"W.	c #552F16",
"X.	c #947E5A",
"Y.	c #7C6243",
"Z.	c #7B6040",
"`.	c #633E24",
" +	c #572F16",
".+	c #5C351D",
"++	c #5F3A1F",
"@+	c #644026",
"#+	c #664227",
"$+	c #68452A",
"%+	c #69462B",
"&+	c #6B482D",
"*+	c #6A482C",
"=+	c #664328",
"-+	c #654127",
";+	c #613C23",
">+	c #603B21",
",+	c #694A33",
"'+	c #5B341B",
")+	c #978976",
"!+	c #684932",
"~+	c #674831",
"{+	c #8D7452",
"]+	c #8E7553",
"^+	c #8E7653",
"/+	c #6A4A33",
"(+	c #998B77",
"_+	c #57321A",
":+	c #9A9182",
"<+	c #9B9183",
"[+	c #9B9283",
"}+	c #66442B",
"|+	c #957E5C",
"1+	c #967E5C",
"2+	c #9D9283",
"3+	c #562F16",
"4+	c #5B371D",
"5+	c #644228",
"6+	c #5D381E",
"                . . . . . . . .                 . . . . . . . . ",
"                . . . . . . . .                 . . . . . . . . ",
"                . . . . . . . .                 . . . . . . . . ",
"                . . . . . . . .                 . . . . . . . . ",
"    + @ # $ % & * = - ; > > , , , > > ' - ) ! ~ { @ ] # . . . . ",
"    ^ / ( _ : < [ [ [ [ } } } [ } } [ } } [ [ | 1 2 3 4 . . . . ",
"    5 6 7 8 9 0 0 a b c c d d d d d d e f g h i | j / k   . . . ",
"    l m n n o p p q r s t u u u s v w x x y z A B B C ^     . . ",
". . D E F G * * * H I J K - - - $ $ % L % M H H N N O P Q Q     ",
". . l R S T * U V W X Y Y Z Y W Y ` ` W ` `  .H ....+.@.Q Q     ",
". . ; #.$.%.H U &.&.*.*.=.=.-.-.-.-.-.;.>.-.-.,.'.'.).!.Q Q     ",
". . ~.{.].].H ^./.(.(.(._._._.:.<.<.<.<.<.<.<.[.}.|.1.2.Q Q     ",
". . 3.4.'.'.H 5.6.6.7.7.<.8.8.8.8.8.8.8.8.8.8.K 9.9.0.2.Q Q     ",
". . a.{.b.c.d.e.6.7.<.8.8.8.8.f.f.f.8.8.8.8.8.g.a h.i.L Q Q     ",
". . j.k.0 a d.l.m.m.n.o.p.p.p.h q.q.p.o.r.r.r.s.t.t.k.u.Q Q     ",
". . v.w.h.x.P l.m.n.*.o.p.h p.y.y.y.p.z.r.r.r.A.t.t.B.C.Q Q     ",
"    D.E.F.t.G.l.H.H.c.I.I.I.I.I.I.I.I.I.I.J.K.L.M.M.0.N.    . . ",
"    !.O.F.t.G.P.Q.Q./.R.:.:.R.R.R.R.8.8.7.S.T.U.M.M.E.V.    . . ",
"    W.X.F.t.G.P.Q././.R.R.R.R.R.R.Y.8.<.Z.Z.T.`.M.M.O. +    . . ",
"    u.| F.t.G.G..+++A.@+#+$+%+%+&+*+%+=+-+@+;+>+M.M.,+'+    . . ",
"    u.)+!+~+t.{+M.M.M.]+]+]+]+^+^+^+^+^+^+]+]+]+/+/+(+ +    . . ",
"    _+:+<+[+}+{.{.|+|+|+|+|+|+|+|+1+|+1+1+|+|+/+2+2+2+3+    . . ",
"    + @ # $ % & * = - ; > > , , , > > ' - ) ! ~ { @ ] #     . . ",
"      ~.4.'.'.< [ [ [ [ } } } [ } } [ } } [ [ }.|.1.2.      . . ",
". . . 3.{.b.c.d.* * * * - - - - - - H H H H K 9.9.0.L Q Q Q     ",
". . . ~.a.{.b.c.d.e.6.7.<.8.8.8.8.8.8.8.8.K 9.9.0.4+2.Q Q Q     ",
". . . . 5+{.F.t.t.d.e.6.7.<.8.8.8.8.8.8.K t.M.M.{.6+Q Q Q Q     ",
". . . u.5+!+~+t.{+M.G..+++A.%+%+=+-+@+;+]+]+]+/+/+6+ +Q Q Q     ",
". . . _+:+<+[+}+{.{.|+|+|+|+|+|+1+|+1+1+|+|+/+2+2+2+3+Q Q Q     ",
". . . + @ # $ % & * = - ; > , , > > ' - ) ! ~ { @ ] # Q Q Q     ",
". . . . .       Q Q Q Q Q Q Q Q                 Q Q Q Q Q Q     ",
". . . . . .     Q Q Q Q Q Q Q Q                 Q Q Q Q Q       "};
