/* XPM */
static char * exit_open_xpm[] = {
"32 32 133 2",
"  	c #847F7F",
". 	c #BCB19F",
"+ 	c #654B3E",
"@ 	c #664C3C",
"# 	c #664D3E",
"$ 	c #654C3C",
"% 	c #604332",
"& 	c #684D3B",
"* 	c #6A4F3C",
"= 	c #705440",
"- 	c #725640",
"; 	c #725741",
"> 	c #735741",
", 	c #6C4E3A",
"' 	c #6B4E39",
") 	c #694D39",
"! 	c #684B38",
"~ 	c #654936",
"{ 	c #634534",
"] 	c #694D3B",
"^ 	c #6E5544",
"/ 	c #6F5645",
"( 	c #6D5443",
"_ 	c #5E3E2B",
": 	c #908475",
"< 	c #948879",
"[ 	c #918575",
"} 	c #6F543E",
"| 	c #8A7253",
"1 	c #8D7555",
"2 	c #8E7655",
"3 	c #8F7656",
"4 	c #8E7656",
"5 	c #8D7655",
"6 	c #8D7454",
"7 	c #8A7152",
"8 	c #6E503A",
"9 	c #8F8475",
"0 	c #938779",
"a 	c #968B7C",
"b 	c #59341C",
"c 	c #111111",
"d 	c #B4A9A3",
"e 	c #5D3B22",
"f 	c #5A341C",
"g 	c #5C3920",
"h 	c #5A5A63",
"i 	c #5E3A21",
"j 	c #989594",
"k 	c #5B351D",
"l 	c #59331A",
"m 	c #573118",
"n 	c #603D23",
"o 	c #5A351B",
"p 	c #613E23",
"q 	c #313131",
"r 	c #5A361C",
"s 	c #634226",
"t 	c #66452A",
"u 	c #5D391F",
"v 	c #613F24",
"w 	c #5C371D",
"x 	c #573016",
"y 	c #552F16",
"z 	c #572F16",
"A 	c #5B341B",
"B 	c #57321A",
"C 	c #562F16",
"D 	c #58341A",
"E 	c #5B371F",
"F 	c #5D3921",
"G 	c #5C381F",
"H 	c #5C371F",
"I 	c #532C15",
"J 	c #573119",
"K 	c #5B361D",
"L 	c #5F3B22",
"M 	c #623F25",
"N 	c #634026",
"O 	c #623E24",
"P 	c #563019",
"Q 	c #532C14",
"R 	c #5A361E",
"S 	c #5A371E",
"T 	c #5B371E",
"U 	c #957D5B",
"V 	c #886F4E",
"W 	c #816747",
"X 	c #816646",
"Y 	c #816647",
"Z 	c #89704E",
"` 	c #88704E",
" .	c #957F5B",
"..	c #947D5B",
"+.	c #88704F",
"@.	c #896F4F",
"#.	c #59321A",
"$.	c #583119",
"%.	c #5E3920",
"&.	c #8A724F",
"*.	c #97815D",
"=.	c #73573A",
"-.	c #7A6041",
";.	c #7B6041",
">.	c #7B6141",
",.	c #7C6142",
"'.	c #5B371D",
").	c #644228",
"!.	c #8C7351",
"~.	c #8C7452",
"{.	c #8D7553",
"].	c #5D381E",
"^.	c #684932",
"/.	c #674831",
"(.	c #8D7452",
"_.	c #5A331A",
":.	c #5C351D",
"<.	c #5F3A1F",
"[.	c #633F24",
"}.	c #69462B",
"|.	c #664328",
"1.	c #654127",
"2.	c #644026",
"3.	c #613C23",
"4.	c #8E7553",
"5.	c #6A4A33",
"6.	c #9A9182",
"7.	c #9B9183",
"8.	c #9B9283",
"9.	c #66442B",
"0.	c #957E5C",
"a.	c #967E5C",
"b.	c #9D9283",
"                . . . . . . . .                 . . . . . . . . ",
"                . . . . . . . .                 . . . . . . . . ",
"                . . . . . . . .                 . . . . . . . . ",
"                . . . . . . . .                 . . . . . . . . ",
"                . . . . . . . .                 . . . . . . . . ",
"      + @ # $ % & * = - ; ; > > , ' ' ) ! ~ { % ] ^ / ( . . . . ",
"      _ : < [ } | 1 2 3 4 3 4 4 4 4 4 4 5 1 6 7 8 9 0 a   . . . ",
"      b c c c c c d c c c c c c c c c c d c c c c c e       . . ",
". . . f c c c c c d c c c c c c c c c c d c c c c c g h h h     ",
". . . i c c c c c c d j j j j j j j j d c c c c c c b h h h     ",
". . . k c c c c c c d c c c c c c c c d c c c c c c l h h h     ",
". . . i c c c c c c c d c c c c c c d c c c c c c c m h h h     ",
". . . n c c c c c c c d j j j j j j d c c c c c c c o h h h     ",
". . . p c c c q q c c c d c c c c d c c c q q q q q r h h h     ",
". . . s c c c q q c c c c d j j d c c c c q q q q q r h h h     ",
". . . t c c c q q c c c c c c c c c c c c q q q q q u h h h     ",
"      v c c c q q q c c c c c c c c c c q q q q q q w       . . ",
"      o c c c q q q q c c c c c c c c q q q q q q q x       . . ",
"      y c c c q q q q q q q q q q q q q q q q q q q z       . . ",
"      w c c c q q q q q q q q q q q q q q q q q q q A       . . ",
"      w c c c q q q q q q q q q q q q q q q q q q q z       . . ",
"      B c c c q q q q q q q q q q q q q q q q q q q C       . . ",
"      D E F G H I J K L n M M N N M O L P Q R S E T F       . . ",
"      p U V V W X X X X Y Y Y X Y Y X Y Y X X Z `  .r       . . ",
". . . s ..+.@.#.J J J J L L L L L L $.$.$.$.%.&.&.*.u h h h     ",
". . . p t ..+.@.#.=.-.;.>.,.,.,.,.,.,.,.,.%.&.&.*.'.r h h h     ",
". . . . )...!.~.~.#.=.-.;.>.,.,.,.,.,.,.%.~.{.{...].h h h h     ",
". . . w ).^./.~.(.{._.:.<.[.}.}.|.1.2.3.4.4.4.5.5.].z h h h     ",
". . . B 6.7.8.9.....0.0.0.0.0.0.a.0.a.a.0.0.5.b.b.b.C h h h     ",
". . . D E F G H I J K L n M N N M M O L P Q R S E T F h h h     ",
". . . . .       h h h h h h h h                 h h h h h h     ",
". . . . . .     h h h h h h h h                 h h h h h       "};
