/* XPM */
static char * lone_wall_xpm[] = {
"32 32 5 1",
" 	c #847F7F",
".	c #BCB19F",
"+	c #3E3D4C",
"@	c #21263F",
"#	c #5A5A63",
"    ....    ....    ....    ....",
"    ....    ....    ....    ....",
"    ....    ....    ....    ....",
"    ....    ....    ....    ....",
"....    ....    ....    ....    ",
"....    ....    ....    ....    ",
"....    ....    ....    ....    ",
"....    ....    ....    ....    ",
"    ....+@@@@@@@@@@@@@@+    ....",
"    ....@############@@@#   ....",
"    ....@#++++++++++#@@@##  ....",
"    ....@#++++++++++#@@@### ....",
"....    @#++@@@@@@++#@@@   .    ",
"....    @#++@####@++#@@@   .    ",
"....    @#++@#++#@++#@@@   .    ",
"....    @#++@#++#@++#@@@   .    ",
"    ....@#++@####@++#@@@### ....",
"    ....@#++@@@@@@++#@@@### ....",
"    ....@#++++++++++#@@@### ....",
"    ....@#++++++++++#@@@### ....",
"....    @############@@@   .    ",
"....    @@@@@@@@@@@@@@@@   .    ",
"....    @@@@@@@@@@@@@@@@   .    ",
"....    +@@@@@@@@@@@@@@+   .    ",
"    .... ###    ####    ### ....",
"    ....  ##    ####    ### ....",
"    ....   #    ####    ### ....",
"    ....    ....    ....    ....",
"....    ....    ....    ....    ",
"....    ....    ....    ....    ",
"....    ....    ....    ....    ",
"....    ....    ....    ....    "};
