/* XPM */
static char * lower_right_wall_xpm[] = {
"32 32 8 1",
" 	c #847F7F",
".	c #BCB19F",
"+	c #21263F",
"@	c #5A5A63",
"#	c #3E3D4C",
"$	c #3A5339",
"%	c #6B7B39",
"&	c #84AD42",
"    ....    ++@##@++$$$$%%%%%%%%",
"    ....    ++@##@++$$$%%$%%%%%%",
"    ....    ++@##@++$$$$%$%%%%&%",
"    ....    ++@##@++$$$$%%%%%&&%",
"....    ....++@##@++$$$$%%%%%%%%",
"....    ....++@##@++$$$$%%%%%%%%",
"....    ....++@##@++$$$$%%%&%%%%",
"....    ....++@##@++$$$%%%%&%%%%",
"    ....    ++@##@++$$$%%%%%%$$%",
"    ....    ++@##@++$$$%%%%%%%%%",
"    ....    ++@##@++$$$$%%%%%%%%",
"    ....    ++@##@++$$$$%%%%%%%%",
"++++++++++++++@##@++$$$$%%%&&%%%",
"@@@@@@@@@@@@@@@##@++$$$$%%%%&&%%",
"#################@++$$$$%%%%%%%%",
"#################@++$$$%%%%%%%%%",
"@@@@@@@@@@@@@@@@@@++$$$$%%%%%%%%",
"++++++++++++++++++++$$$$%%%%%$%%",
"++++++++++++++++++++$$$$%%%%%%%%",
"+++++++++++++++++++$$$$%%%%%%%%%",
"$$$$$$$$$$$$$$$$$$$$$$$%%%%%%%%%",
"$$$$$$$$$$$$$$$$$$$$$$$%%%%$%%%%",
"$$$$$$$$$$$$$$$$$$$$$$%%%%%$%%%%",
"$%%$$$$$%$%$$$$$%%$$$%%%%%%%&%%%",
"%%%%%%%%%%%%%%%%%%%%%%%%%%%%&%%%",
"%%$%%%%%%%%%%%%%%%%%%%%%%%%%%%%%",
"%%$%%%%%%%%&%%%%%%%%%%%%%&%%%%%%",
"%%%%%%%%%%%&%%%%%%%%%%%%%&%%%%%%",
"%%%%%&&%%%%%%%%$%%&%%%%%%&%%%%%%",
"%%%%%&%%%%%%%%%$%%%%%%%%%%%%%%%%",
"%%%%%$%%%%%%%%%%%%%%%%%%%%%%%%%%",
"%%%%%%%%%%%%%%%%%%%%%%%%%%%%%%%%"};
