/* XPM */
static char * player_xpm[] = {
"32 32 2 1",
" 	c #616E75",
".	c #3D9146",
"                                ",
"                                ",
"                                ",
"             ...                ",
"            .   .               ",
"            .   .               ",
"           ..   .               ",
"           .    .               ",
"            .   .               ",
"            .....               ",
"              .                 ",
"              .                 ",
"               .                ",
"               .  ..            ",
"            ......              ",
"           .   .                ",
"          .    .                ",
"               .                ",
"               .                ",
"              ..                ",
"             . ..               ",
"            .   .               ",
"            .    .              ",
"            .    .              ",
"            .    .              ",
"                 .              ",
"                 .              ",
"                                ",
"                                ",
"                                ",
"                                ",
"                                "};
