/* XPM */
static char * player_left_xpm[] = {
"32 32 11 1",
" 	c #847F7F",
".	c #BCB19F",
"+	c #117218",
"@	c #00FF14",
"#	c #FFFFFF",
"$	c #000000",
"%	c #84807F",
"&	c #84817F",
"*	c #BBB29E",
"=	c #83827E",
"-	c #5A5A63",
"        ........+ +     ........",
"        ......@@@@@     ........",
"        .....@@#@@@@    ........",
"        .....@@$@#@@    ........",
"        .....@@@@$@@    ........",
"        .....@@+@@@@%   ........",
"        ......@@@@@&    ........",
"        .......*@       ........",
"........      @@@.......        ",
"........     @  @@......        ",
"........     @  @.@.....        ",
"........     =  @..@....        ",
"........        @..@....        ",
"........        @.......        ",
"........        @.......        ",
"........        @.......        ",
"        ........@       ........",
"        .......@@       ........",
"        ......@. @      ........",
"        ......@.  @     ........",
"        ......@.  @     ........",
"        ......@.  @     ........",
"        ......@.  @     ........",
"        ......  --@     ........",
"........      --  @.....        ",
"........       -  @ ....        ",
"........       -     ...        ",
"........        .    ...        ",
"........        ... ....        ",
"........        ........        ",
"........        ........        ",
"........        ........        "};
