/* XPM */
static char * player_right_xpm[] = {
"32 32 13 1",
" 	c #847F7F",
".	c #BCB19F",
"+	c #117218",
"@	c #00FF14",
"#	c #FFFFFF",
"$	c #000000",
"%	c #BBB29E",
"&	c #84817F",
"*	c #B8B69C",
"=	c #5A5A63",
"-	c #BBB09E",
";	c #837E7E",
">	c #837F7F",
"        .....+.+        ........",
"        .....@@@@@      ........",
"        ....@@@@#@@     ........",
"        ....@@#@$@@     ........",
"        ....@@$@@@@     ........",
"        ....@@@@+@@     ........",
"        ....%@@@@@      ........",
"        .......@&       ........",
"........       @@@......        ",
"........      @@*.@.....        ",
"........     @ @..@.....        ",
"........    @  @..%.....        ",
"........    @  @........        ",
"........       @........        ",
"........       @........        ",
"........       @........        ",
"        .......@        ........",
"        .......@@       ........",
"        ......@. @      ........",
"        .....@.. @      ........",
"        .....@.. @      ........",
"        .....@.. @      ........",
"        .....@.. @      ........",
"        .....@.. ==     ........",
"........     @  -. .....        ",
"........     @= ..   ...        ",
"........   ;  ==      ..        ",
"........   >  ;=      ..        ",
"........        .    . .        ",
"........        ..  ....        ",
"........        .... ...        ",
"........        ........        "};
