/* XPM */
static char * player_back_xpm[] = {
"32 32 5 1",
" 	c #847F7F",
".	c #BCB19F",
"+	c #117218",
"@	c #00FF14",
"#	c #5A5A63",
"        ......+. +      ........",
"        .....@+@@+@     ........",
"        ....@@@@@@@@    ........",
"        ....@@@@@@@@@   ........",
"        ....@@@@@@@@@   ........",
"        ....@@@@@@@@@   ........",
"        .....@@@@@@@    ........",
"        ........@       ........",
"........        @.......        ",
"........     @@@@@@.....        ",
"........    @   @..@....        ",
"........   @    @...@...        ",
"........   @    @...@...        ",
"........   @   @....@...        ",
"........       @........        ",
"........       @........        ",
"        .......@        ........",
"        ......@@@       ........",
"        ....@@.. @@     ........",
"        ....@...  @     ........",
"        ...@....   @    ........",
"        ...@....   @    ........",
"        ...@....   @    ........",
"        ...@....   @    ........",
"........   @    ...@....        ",
"........    #   ... ....        ",
"........    ##  ... ....        ",
"........     ###    ....        ",
"........      ##     ...        ",
"........      ##     ...        ",
"........       #    ....        ",
"........        . .. ...        "};
