/* XPM */
static char * spikes_up_xpm[] = {
"32 32 6 1",
" 	c #616E75",
".	c #949191",
"+	c #585858",
"@	c #000000",
"#	c #606D73",
"$	c #606D74",
"                                ",
"                                ",
"                          .     ",
"                          .     ",
"     .                    .     ",
"     .                    .     ",
"     .                   .+     ",
"     .                  @.+#    ",
"     .          .       @++@    ",
"    ..          .        @@@    ",
"   @.+          .               ",
"   @++@         .               ",
"    @@@         .               ",
"               .+   $           ",
"              @.+@              ",
"              @++@@             ",
"               @@@@     .       ",
"          .             .       ",
"          .             .       ",
"          .             .       ",
"          .             .       ",
"          .             .       ",
"          .            ..       ",
"          ..           .+.      ",
"          +.          @.+.@     ",
"         .+.          @+++@     ",
"        @.+.           @@@@     ",
"        @+++                    ",
"         @@@                    ",
"                                ",
"                                ",
"                                "};
