/* XPM */
static char * spikes_down_xpm[] = {
"32 32 3 1",
" 	c #616E75",
".	c #000000",
"+	c #949191",
"                                ",
"                                ",
"                                ",
"                                ",
"                                ",
"                                ",
"                                ",
"                        ...     ",
"                        ..+.    ",
"                         ...    ",
"   ..+                          ",
"   ..+.                         ",
"    ...                         ",
"                                ",
"              ..+.              ",
"              ..+..             ",
"               ....             ",
"                                ",
"                                ",
"                                ",
"                                ",
"                                ",
"                        +       ",
"          +             +       ",
"          +           ..+..     ",
"          +           ..+..     ",
"        ..+            ....     ",
"        ..+.                    ",
"         ...                    ",
"                                ",
"                                ",
"                                "};
