/* XPM */
static char * sprite_init_xpm[] = {
"32 32 10 1",
" 	c #847F7F",
".	c #BCB19F",
"+	c #117218",
"@	c #00FF14",
"#	c #FFFFFF",
"$	c #000000",
"%	c #BAB39D",
"&	c #37F039",
"*	c #5A5A63",
"=	c #84807F",
"        ........        ........",
"        ........        ........",
"        .....+..+       ........",
"        ....@@@@@@      ........",
"        ...@@#@@#@@     ........",
"        ...@@$@@$@@@    ........",
"        ...@@@@@@@@@    ........",
"        ...@@@+@@@@@    ........",
"........    @@@@@@@.....        ",
"........       @........        ",
"........     @@@@@......        ",
"........    @  @..@.....        ",
"........   @   @...@....        ",
"........   @   @...@....        ",
"........   @   @...@....        ",
"........       @........        ",
"        .......@        ........",
"        .......@        ........",
"        ....@@@@@@@     ........",
"        ..@@...%   @@   ........",
"        ..@.....    @   ........",
"        .@......     @  ........",
"        .@......     @  ........",
"        .@......     @  ........",
"........ &      .....@..        ",
"........ *      .....=..        ",
"........ **     ....  ..        ",
"........  **    ...  ...        ",
"........   *****    ....        ",
"........     ***    ....        ",
"........      **    ....        ",
"........       *.. .....        "};
