/* XPM */
static char * test_player_xpm[] = {
"32 32 2 1",
" 	c #000000",
".	c #3D9146",
"                                ",
"                                ",
"                                ",
"                                ",
"                                ",
"                                ",
"           ......               ",
"           .    .               ",
"           .    .               ",
"           .    .               ",
"            .   .               ",
"             ...                ",
"              .                 ",
"              .                 ",
"          ... .                 ",
"         .. ...                 ",
"        ..   .....      .       ",
"     . ..     .. ..   ..        ",
"     ...      .   .....         ",
"              .                 ",
"              .                 ",
"              .                 ",
"              .                 ",
"            .......             ",
"           .      .             ",
"           .      .             ",
"           .      ..            ",
"           .                    ",
"                                ",
"                                ",
"                                ",
"                                "};
