/* XPM */
static char * tile_variant_xpm[] = {
"32 32 5 1",
" 	c #847F7F",
".	c #BCB19F",
"+	c #6B7B39",
"@	c #84AD42",
"#	c #3A5339",
"    ....    ....    ....    ....",
"    ....    ....    ....    ....",
"    ....    ....    ....    ....",
"    ....    ....    ....    ....",
"++   +++++...+++++++++++++...+++",
"++   +++++...+..++++++++++...+..",
"++++++..++...+..+++++  +++...+..",
"+...++..+++++++++...+  +++++++++",
"+...+++++  +....+...+++++  +....",
"+...+...+  +....+...+++++  +....",
"+++++...++++....+++++++.++++....",
"+++++...++++++++++++++++++++++++",
"++++++++++++++++++++++++++++++++",
"++++++++++++@+++++++++++++++++++",
"+++++  +@++@+++++++++@+++++++  +",
"+...+  ++@+@+++@++@++@+@+...+  +",
"+...+++++@+@++@+++@++++@+...++++",
"+...+++++@+@+@@+++@+@++++...++++",
"+++++++.#@#@#@++++++@+@++++++++.",
"++++++++++#++@++++++++@+++++++++",
"....    ++   +++++...+++....    ",
"....    ++   +++++...+......    ",
"....    ++++++..++...+......    ",
"....    +...++..++++++++....    ",
"    ....+...+++++  +....    ....",
"    ....+...+...+  +....    ....",
"    ....+++++...++++....    ....",
"    ....+++++...++++++++    ....",
"....    ....    ....    ....    ",
"....    ....    ....    ....    ",
"....    ....    ....    ....    ",
"....    ....    ....    ....    "};
