/* XPM */
static char * tile_xpm_xpm[] = {
"32 32 2 1",
" 	c #847F7F",
".	c #BCB19F",
"        ........        ........",
"        ........        ........",
"        ........        ........",
"        ........        ........",
"        ........        ........",
"        ........        ........",
"        ........        ........",
"        ........        ........",
"........        ........        ",
"........        ........        ",
"........        ........        ",
"........        ........        ",
"........        ........        ",
"........        ........        ",
"........        ........        ",
"........        ........        ",
"        ........        ........",
"        ........        ........",
"        ........        ........",
"        ........        ........",
"        ........        ........",
"        ........        ........",
"        ........        ........",
"        ........        ........",
"........        ........        ",
"........        ........        ",
"........        ........        ",
"........        ........        ",
"........        ........        ",
"........        ........        ",
"........        ........        ",
"........        ........        "};
