/* XPM */
static char * upper_wall_xpm[] = {
"32 32 8 1",
" 	c #6B7B39",
".	c #3A5339",
"+	c #84AD42",
"@	c #21263F",
"#	c #5A5A63",
"$	c #3E3D4C",
"%	c #847F7F",
"&	c #BCB19F",
"   .         .     +  +   +  + +",
" . .   .     .     +      ++ + +",
" .   . .                   +.+.+",
"     .                     +  . ",
"@@@@@@@@@@@@@@@@@@@@@@@@@@@@@@@@",
"################################",
"$$$$$$$$$$$$$$$$$$$$$$$$$$$$$$$$",
"$$$$$$$$$$$$$$$$$$$$$$$$$$$$$$$$",
"################################",
"@@@@@@@@@@@@@@@@@@@@@@@@@@@@@@@@",
"@@@@@@@@@@@@@@@@@@@@@@@@@@@@@@@@",
"@@@@@@@@@@@@@@@@@@@@@@@@@@@@@@@@",
"%%%%####%%%%####%%%%####%%%%####",
"%%%%####%%%%####%%%%####%%%%####",
"%%%%####%%%%####%%%%####%%%%####",
"&&&&%%%%&&&&%%%%&&&&%%%%&&&&%%%%",
"%%%%&&&&%%%%&&&&%%%%&&&&%%%%&&&&",
"%%%%&&&&%%%%&&&&%%%%&&&&%%%%&&&&",
"%%%%&&&&%%%%&&&&%%%%&&&&%%%%&&&&",
"%%%%&&&&%%%%&&&&%%%%&&&&%%%%&&&&",
"&&&&%%%%&&&&%%%%&&&&%%%%&&&&%%%%",
"&&&&%%%%&&&&%%%%&&&&%%%%&&&&%%%%",
"&&&&%%%%&&&&%%%%&&&&%%%%&&&&%%%%",
"&&&&%%%%&&&&%%%%&&&&%%%%&&&&%%%%",
"%%%%&&&&%%%%&&&&%%%%&&&&%%%%&&&&",
"%%%%&&&&%%%%&&&&%%%%&&&&%%%%&&&&",
"%%%%&&&&%%%%&&&&%%%%&&&&%%%%&&&&",
"%%%%&&&&%%%%&&&&%%%%&&&&%%%%&&&&",
"&&&&%%%%&&&&%%%%&&&&%%%%&&&&%%%%",
"&&&&%%%%&&&&%%%%&&&&%%%%&&&&%%%%",
"&&&&%%%%&&&&%%%%&&&&%%%%&&&&%%%%",
"&&&&%%%%&&&&%%%%&&&&%%%%&&&&%%%%"};
